<svg id="Layer_1" enable-background="new 0 0 60 60" height="64" viewBox="0 0 60 60" width="64" xmlns="http://www.w3.org/2000/svg"><g><path d="m44.1671638 20.4103489c-.4430046-.5906506-.8599739-1.1552448-1.0857697-1.6938095-.2345428-.5732613-.3466187-1.2942276-.460392-2.0499191-.2084579-1.3463421-.4169197-2.7448263-1.4063034-3.735033-.9997787-.998929-2.3982353-1.2073879-3.7445793-1.4158468-.7556877-.1129246-1.4766541-.2171545-2.0490685-.4603653-.5385361-.2258482-1.1040077-.6427927-1.6946602-1.0857687-1.0597342-.7904435-2.2584284-1.6851159-3.7263907-1.6851159-1.4679089 0-2.6666012.8946724-3.7263393 1.6851158-.5906525.442976-1.1552734.8599205-1.6938095 1.0857687-.5732632.2432108-1.2942295.3474407-2.0499191.4603653-1.346344.2084589-2.7439518.4169178-3.7350349 1.4158468-.9980259.9902067-1.2073879 2.3886909-1.4158459 3.735033-.1129246.7556915-.2171535 1.4766579-.460392 2.0499191-.2257957.5385647-.6418648 1.103159-1.0857687 1.6938095-.7904167 1.0597115-1.6851158 2.2584057-1.6851158 3.726366 0 1.4679623.8946991 2.6666546 1.6851158 3.726366.4439039.5906525.859973 1.1552467 1.0857687 1.6937847.2432384.573288.3474674 1.2942276.460392 2.0499458.2084579 1.3463402.41782 2.7448006 1.4158459 3.7350349.9910831.9989014 2.3886909 1.207386 3.7350349 1.415844.7556896.1129265 1.476656.2171555 2.0499191.4603653.5385361.2258492 1.103157.6427689 1.6938095 1.0857697 1.0597381.7904436 2.2584304 1.685116 3.7263393 1.685116 1.4679623 0 2.6666565-.8946724 3.7263908-1.6851158.5906525-.4430008 1.1561241-.8599205 1.6946602-1.0857697.5724144-.2432098 1.2933807-.3474388 2.0490685-.4603653 1.346344-.2084579 2.7448006-.4169426 3.7350349-1.415844.9989281-.9902344 1.2073898-2.3886948 1.4158478-3.7350349.1137733-.7557182.2258492-1.4766579.460392-2.0499458.2257957-.538538.642765-1.1031322 1.0857697-1.6937847.7904167-1.0597115 1.6850624-2.2584038 1.6850624-3.726366 0-1.4679604-.8946457-2.6666547-1.6850625-3.7263661m-5.6459999 1.7806511-3.6308556 3.5352688.8608208 4.9945374c.0512657.3213844-.0790482.6514606-.3483162.8512516-.1563454.1042309-.3300781.1650391-.5125046.1650391-.138958 0-.2779121-.0347519-.4073753-.104229l-4.482933-2.3539658-4.4820309 2.3539658c-.295351.1563454-.6514606.1302872-.9207287-.0608101-.2605743-.199791-.3995819-.5298672-.3387737-.8512516l.8521271-4.9945374-3.6317062-3.5352688c-.2344894-.2345161-.3213825-.5819569-.2171535-.8946724.1042824-.3126888.3743992-.547205.703577-.5906525l5.0119247-.7296333 2.2410431-4.5428658c.2952995-.5906525 1.2681961-.5906525 1.5634956 0l2.2410412 4.5428658 5.0118752.7296333c.3300781.0434475.5993462.2779636.7036285.5906525.104229.3127155.0182381.6601562-.2171555.8946724" fill="#2b79c2"/><g fill="#3b4651"><path d="m27.8636646 41.2920227-3.3798256 9.8327293c-.1129246.3474388-.434309.5819817-.7895679.5906525h-.0260315c-.3561611 0-.6696987-.2171555-.8087063-.5385399l-1.9100628-4.6905136-4.3873978 2.5276718c-.3118401.1737328-.7026739.1389809-.9893322-.0868683-.2788115-.2345161-.3821926-.6080132-.2605734-.9554787l3.5786886-10.4320488c1.1022568.581955 2.3104935.7730522 3.335453.9293976l.104229.0173874c.6254311.0955353 1.2152348.1824036 1.5808868.3300781.3552608.1563454.8937969.5559006 1.328104.8859787.7131731.5298692 1.5817873 1.1726342 2.6241361 1.5895539"/><path d="m44.427578 48.9272346c-.2771149.2258492-.6688499.260601-.9902344.0868683l-4.3856468-2.5276718-1.9118118 4.6905403c-.1390076.3213844-.4508476.5385361-.8069572.5385361h-.0269318c-.3561096-.0086937-.677494-.2432098-.7904167-.5906487l-3.3780785-9.8327293c1.0423508-.4169464 1.9196587-1.068409 2.6319313-1.5982513.4247627-.3214073.9632988-.7209625 1.3281021-.8773079.3561096-.1476746.9468155-.2345161 1.57304-.3300781l.104229-.0173645c1.025013-.1563416 2.2314987-.3474388 3.3355064-.9207268l3.5873833 10.423378c.1120224.3474426.0077934.7209396-.2701149.9554557"/></g></g></svg>