<svg id="Layer_1" enable-background="new 0 0 60 60" viewBox="0 0 60 60"
    xmlns="http://www.w3.org/2000/svg">
    <g>
        <path d="m47.7979355 8.7189312h-35.604538c-2.1541615 0-3.9087677 1.7546196-3.9087677 3.9174623v24.3038597c0 2.1628418 1.7546062 3.9174347 3.9087677 3.9174347h3.6742516v9.5547638c0 .3474693.2084599.6688499.5298557.7991371.1129112.0521164.2258358.0694809.3387585.0694809.2258358 0 .4429893-.0868416.6080284-.2518806l10.1714745-10.1715012h20.2821693c2.1541481 0 3.9174347-1.7545929 3.9174347-3.9174347v-24.3038597c0-2.1628427-1.7632866-3.9174623-3.9174347-3.9174623m-32.3515654 7.8175354h14.5493021c.4803391 0 .8686161.389164.8686161.8686142 0 .4794788-.3882771.8686161-.8686161.8686161h-14.5493021c-.4794769 0-.8686152-.3891373-.8686152-.8686161.0000001-.4794502.3891383-.8686142.8686152-.8686142m29.0986052 16.5036869h-29.0986052c-.4794769 0-.8686152-.3891373-.8686152-.8686142 0-.4794521.3891382-.8686161.8686152-.8686161h29.0986061c.4794502 0 .8686142.389164.8686142.8686161-.0000009.4794769-.3891649.8686142-.8686151.8686142m0-7.3832283h-29.0986052c-.4794769 0-.8686152-.3891392-.8686152-.8686161 0-.4794502.3891382-.8686142.8686152-.8686142h29.0986061c.4794502 0 .8686142.389164.8686142.8686142-.0000009.4794769-.3891649.8686161-.8686151.8686161" fill="#F0F5F9"/>
    </g>
</svg>