<svg id="Layer_1" enable-background="new 0 0 60 60" viewBox="0 0 60 60"
    xmlns="http://www.w3.org/2000/svg">
    <g>
        <g>
            <g>
                <path d="m50.8699951 12.7799683v40.2200317c0 .5499878-.4400024 1-1 1h-33.9700317c-.5499878 0-1-.4500122-1-1v-2.7700195h29.1900024c1.6500244 0 3-1.3499756 3-3v-35.4500122h2.7800293c.5599976 0 1 .4500122 1 1z" fill="#1E2022"/>
            </g>
        </g>
        <g>
            <path d="m44.0899658 6h-33.9599609c-.5499878 0-1 .4500122-1 1v40.2299805c0 .5499878.4500122 1 1 1h33.9599609c.5599976 0 1-.4500122 1-1v-40.2299805c0-.5499878-.4400024-1-1-1zm-14.3206177 36.0891724h-13.8847656c-.5522461 0-1-.4477539-1-1s.4477539-1 1-1h13.8847656c.5522461 0 1 .4477539 1 1s-.4477539 1-1 1zm0-5.5898438h-13.8847656c-.5522461 0-1-.4477539-1-1s.4477539-1 1-1h13.8847656c.5522461 0 1 .4477539 1 1s-.4477539 1-1 1zm8.5703125-5.5898437h-22.4550781c-.5522461 0-1-.4477539-1-1s.4477539-1 1-1h22.4550781c.5522461 0 1 .4477539 1 1s-.4477539 1-1 1zm0-5.5893555h-22.4550781c-.5522461 0-1-.4477539-1-1s.4477539-1 1-1h22.4550781c.5522461 0 1 .4477539 1 1s-.4477539 1-1 1zm0-5.5898438h-22.4550781c-.5522461 0-1-.4477539-1-1s.4477539-1 1-1h22.4550781c.5522461 0 1 .4477539 1 1s-.4477539 1-1 1zm0-5.5898437h-22.4550781c-.5522461 0-1-.4477539-1-1s.4477539-1 1-1h22.4550781c.5522461 0 1 .4477539 1 1s-.4477539 1-1 1z" fill="#1E2022"/>
        </g>
    </g>
</svg>