<svg id="Layer_1" viewBox="0 0 60 60"
    xmlns="http://www.w3.org/2000/svg">
    <g>
        <path d="m50.5961342 36.6542358c-.6688385.7036018-1.5808868 1.1465797-2.5450478 1.2508087.5298538.7470245.7991219 1.6416969.7470093 2.5797882-.0955467 1.7980385-1.4071541 3.2746964-3.1530762 3.7176704.5906639.7730789.8859901 1.711174.8338737 2.7014084-.1129227 2.1628418-1.9804382 3.8566513-4.2562218 3.8566513h-14.5753573c-2.4408073 0-6.4190655-.8773079-8.9032917-2.5103111v-18.492794l3.3528404-1.2595024 4.6905308-10.5015526v-4.9163647c0-1.7806511 1.2160549-3.3181162 2.9532852-3.7350349.8512383-.199791 1.728548-.1129236 2.4668636.2345171 5.7502403 2.7621889 4.0564423 10.7360697 3.1704521 13.7675543h10.9445419c2.2757797 0 4.1432991 1.7024784 4.2562218 3.8653202.0607986 1.1292152-.3387604 2.2062893-1.111824 3.0227909-.0086975 0-.0086975.0086937-.0086975.0086937 1.2768669.6514626 2.1715393 1.9109364 2.2497253 3.3875942.0607949 1.1291886-.3300781 2.2062912-1.1118278 3.0227623" fill="#1E2022"/>
        <path d="m17.0067787 28.7930164v20.8380909c0 .4777298-.3908882.868618-.8686142.868618h-6.9836664c-.4777412 0-.8686152-.3908882-.8686152-.868618v-20.8380909c0-.4777279.3908739-.8686161.8686152-.8686161h6.9836664c.477726 0 .8686142.3908882.8686142.8686161" fill="#1E2022"/>
    </g>
</svg>