<svg id="Layer_1" enable-background="new 0 0 60 60" viewBox="0 0 60 60"
    xmlns="http://www.w3.org/2000/svg">
    <g>
        <path d="m43.28 27.39v21.45c0 .55-.45 1-1 1h-37.78c-.55 0-1-.45-1-1v-30.34c0-.56.45-1 1-1h28.7c-3.65 3.69-5.87 8.76-5.87 14.33 0 1.79.25 3.62.75 5.43.36 1.29 1.55 2.19 2.89 2.19s2.53-.9 2.9-2.2c1.3-4.75 4.87-8.39 9.41-9.86z" fill="#F0F5F9"/>
        <path d="m56.17 18.17-8.7-7.76c-.3-.26-.71-.33-1.08-.17-.36.16-.59.52-.59.92v2.4c-9.31.97-16.47 8.82-16.47 18.27 0 1.61.23 3.26.68 4.89.12.43.51.73.96.73s.85-.3.97-.73c1.78-6.47 7.27-11.15 13.86-11.92v1.88c0 .4.23.76.6.92.35.16.78.09 1.07-.17l8.7-7.77c.21-.19.33-.46.33-.74 0-.29-.12-.56-.33-.75z" fill="#F0F5F9"/>
    </g>
</svg>